<?xml version="1.0" encoding="utf-8"?>
<!-- Generator: Adobe Illustrator 23.0.4, SVG Export Plug-In . SVG Version: 6.00 Build 0)  -->
<svg version="1.1" id="图层_1" xmlns="http://www.w3.org/2000/svg" xmlns:xlink="http://www.w3.org/1999/xlink" x="0px" y="0px"
	 viewBox="0 0 130.6 35" style="enable-background:new 0 0 130.6 35;" xml:space="preserve">
<style type="text/css">
	.st0{fill:#FFFFFF;}
	.st1{fill:#48A3FF;}
</style>
<title>ontfs备份</title>
<desc>Created with Sketch.</desc>
<g>
	<path d="M28.2,35H6.9C3.1,35,0,31.9,0,28.1V6.9C0,3.1,3.1,0,6.9,0h21.3c3.8,0,6.9,3.1,6.9,6.9v21.3C35.1,31.9,32,35,28.2,35z"/>
	<circle class="st0" cx="17.5" cy="17.4" r="11.3"/>
	<path class="st1" d="M31.1,14.1c-1.2,0-2.3,0.6-3,1.6c-0.4,0.6-1,0.9-1.7,0.9l0,0c-1.1,0-1.9-0.5-2.6-1.5l0,0
		C22,12.5,20.2,11,17.5,11c-3.6,0-6.5,2.9-6.5,6.5s2.9,6.5,6.5,6.5c2.8,0,5-1.8,6.4-4.3l0,0c0.7-1.1,1.5-1.3,2.5-1.3
		c0.2,0,0.4,0,0.6,0.1c0.5,0.1,1,0.5,1.3,0.9c0.7,0.8,1.7,1.3,2.8,1.3c1.8,0,3.3-1.5,3.3-3.3C34.4,15.5,32.9,14.1,31.1,14.1z"/>
	<g>
		<path d="M61.3,11c1.8,1.8,2.7,4,2.7,6.5s-0.9,4.7-2.7,6.5c-1.8,1.8-4,2.7-6.6,2.7s-4.8-0.9-6.6-2.7c-1.8-1.8-2.7-3.9-2.7-6.5
			c0-2.6,0.9-4.7,2.7-6.5s4-2.7,6.6-2.7C57.3,8.4,59.5,9.2,61.3,11z M58.2,21.2c1-1,1.4-2.2,1.4-3.7s-0.5-2.7-1.4-3.7
			c-1-1-2.2-1.5-3.6-1.5c-1.4,0-2.6,0.5-3.6,1.5s-1.4,2.2-1.4,3.7s0.5,2.7,1.4,3.7c1,1,2.2,1.5,3.6,1.5
			C56.1,22.7,57.3,22.2,58.2,21.2z"/>
		<path d="M82.7,26.3h-3.6l-8.9-10.2v10.2h-4.3V8.8h3.6l8.9,10.5V8.8h4.3V26.3z"/>
		<path d="M94.2,12.5v13.8h-4.3V12.5h-5.7V8.8h15.6v3.8h-5.6V12.5z"/>
		<path d="M105.7,16.2h8.2V20h-8.2v6.3h-4.3V8.8H115v3.8h-9.2v3.6H105.7z"/>
		<path d="M128.1,9.7c1.3,0.9,2.1,2.1,2.4,3.7l-4.2,0.9c-0.2-0.8-0.5-1.4-1.1-1.8c-0.6-0.4-1.2-0.6-2-0.6c-0.7,0-1.3,0.2-1.7,0.5
			c-0.4,0.3-0.7,0.8-0.7,1.3c0,0.8,0.5,1.3,1.4,1.5l3.6,0.8c3.2,0.7,4.8,2.4,4.8,5.1c0,1.8-0.7,3.2-2.1,4.2s-3.1,1.5-5.2,1.5
			c-2,0-3.8-0.5-5.2-1.4c-1.4-0.9-2.2-2.2-2.5-3.9l4.4-0.9c0.4,1.7,1.6,2.6,3.5,2.6c0.8,0,1.4-0.2,1.9-0.5s0.7-0.8,0.7-1.3
			c0-0.4-0.1-0.8-0.4-1s-0.7-0.4-1.3-0.5l-3.7-0.8c-3.1-0.7-4.7-2.4-4.7-5.1c0-1.7,0.6-3,1.9-4s2.9-1.5,5-1.5
			C125.2,8.4,126.8,8.8,128.1,9.7z"/>
	</g>
</g>
</svg>
